HIERARCHY
ROOT Hips
{
	OFFSET 0.00000 0.00000 0.00000
	CHANNELS 6 Xposition Yposition Zposition Zrotation Yrotation Xrotation 
	JOINT LHipJoint
	{
		OFFSET 0 0 0
		CHANNELS 3 Zrotation Yrotation Xrotation
		JOINT LeftUpLeg
		{
			OFFSET 1.36306 -1.79463 0.83929
			CHANNELS 3 Zrotation Yrotation Xrotation
			JOINT LeftLeg
			{
				OFFSET 2.44811 -6.72613 0.00000
				CHANNELS 3 Zrotation Yrotation Xrotation
				JOINT LeftFoot
				{
					OFFSET 2.56220 -7.03959 0.00000
					CHANNELS 3 Zrotation Yrotation Xrotation
					JOINT LeftToeBase
					{
						OFFSET 0.15764 -0.43311 2.32255
						CHANNELS 3 Zrotation Yrotation Xrotation
						End Site
						{
							OFFSET 0.00000 -0.00000 1.18966
						}
					}
				}
			}
		}
	}
	JOINT RHipJoint
	{
		OFFSET 0 0 0
		CHANNELS 3 Zrotation Yrotation Xrotation
		JOINT RightUpLeg
		{
			OFFSET -1.30552 -1.79463 0.83929
			CHANNELS 3 Zrotation Yrotation Xrotation
			JOINT RightLeg
			{
				OFFSET -2.54253 -6.98555 0.00000
				CHANNELS 3 Zrotation Yrotation Xrotation
				JOINT RightFoot
				{
					OFFSET -2.56826 -7.05623 0.00000
					CHANNELS 3 Zrotation Yrotation Xrotation
					JOINT RightToeBase
					{
						OFFSET -0.16473 -0.45259 2.36315
						CHANNELS 3 Zrotation Yrotation Xrotation
						End Site
						{
							OFFSET -0.00000 -0.00000 1.21082
						}
					}
				}
			}
		}
	}
	JOINT LowerBack
	{
		OFFSET 0 0 0
		CHANNELS 3 Zrotation Yrotation Xrotation
		JOINT Spine
		{
			OFFSET 0.02827 2.03559 -0.19338
			CHANNELS 3 Zrotation Yrotation Xrotation
			JOINT Spine1
			{
				OFFSET 0.05672 2.04885 -0.04275
				CHANNELS 3 Zrotation Yrotation Xrotation
				JOINT Neck
				{
					OFFSET 0 0 0
					CHANNELS 3 Zrotation Yrotation Xrotation
					JOINT Neck1
					{
						OFFSET -0.05417 1.74624 0.17202
						CHANNELS 3 Zrotation Yrotation Xrotation
						JOINT Head
						{
							OFFSET 0.10407 1.76136 -0.12397
							CHANNELS 3 Zrotation Yrotation Xrotation
							End Site
							{
								OFFSET 0.03720 1.77044 -0.06241
							}
						}
					}
				}
				JOINT LeftShoulder
				{
					OFFSET 0 0 0
					CHANNELS 3 Zrotation Yrotation Xrotation
					JOINT LeftArm
					{
						OFFSET 3.36241 1.20089 -0.31121
						CHANNELS 3 Zrotation Yrotation Xrotation
						JOINT LeftForeArm
						{
							OFFSET 4.98300 -0.00000 -0.00000
							CHANNELS 3 Zrotation Yrotation Xrotation
							JOINT LeftHand
							{
								OFFSET 3.48356 -0.00000 -0.00000
								CHANNELS 3 Zrotation Yrotation Xrotation
								JOINT LeftFingerBase
								{
									OFFSET 0 0 0
									CHANNELS 3 Zrotation Yrotation Xrotation
									JOINT LeftHandIndex1
									{
										OFFSET 0.71526 -0.00000 -0.00000
										CHANNELS 3 Zrotation Yrotation Xrotation
										End Site
										{
											OFFSET 0.57666 -0.00000 -0.00000
										}
									}
								}
								JOINT LThumb
								{
									OFFSET 0 0 0
									CHANNELS 3 Zrotation Yrotation Xrotation
									End Site
									{
										OFFSET 0.58547 -0.00000 0.58547
									}
								}
							}
						}
					}
				}
				JOINT RightShoulder
				{
					OFFSET 0 0 0
					CHANNELS 3 Zrotation Yrotation Xrotation
					JOINT RightArm
					{
						OFFSET -3.13660 1.37405 -0.40465
						CHANNELS 3 Zrotation Yrotation Xrotation
						JOINT RightForeArm
						{
							OFFSET -5.24190 -0.00000 -0.00000
							CHANNELS 3 Zrotation Yrotation Xrotation
							JOINT RightHand
							{
								OFFSET -3.44417 -0.00000 -0.00000
								CHANNELS 3 Zrotation Yrotation Xrotation
								JOINT RightFingerBase
								{
									OFFSET 0 0 0
									CHANNELS 3 Zrotation Yrotation Xrotation
									JOINT RightHandIndex1
									{
										OFFSET -0.62253 -0.00000 -0.00000
										CHANNELS 3 Zrotation Yrotation Xrotation
										End Site
										{
											OFFSET -0.50190 -0.00000 -0.00000
										}
									}
								}
								JOINT RThumb
								{
									OFFSET 0 0 0
									CHANNELS 3 Zrotation Yrotation Xrotation
									End Site
									{
										OFFSET -0.50956 -0.00000 0.50956
									}
								}
							}
						}
					}
				}
			}
		}
	}
}
MOTION
Frames: 15
Frame Time: 0.0408163
0.00 0.00 0.00 0 0 0 0 0 0 -21 0 0 0 0 0 0 0 0 0 0 0 0 0 0 21 0 0 0 0 0 0 0 0 0 0 0 0 0 0 0 0 0 0 0 0 0 0 -16 0 0 21 0 0 11 0 0 0 -8 0 0 0 0 0 0 0 0 0 0 0 0 0 0 0 0 0 0 0 0 8 0 0 0 0 0 0 0 0 0 0 0 0 0 0 0 0 0
0.00 0.00 0.00 -4.5915 -3.7721 3.3765 0.0000 0.0000 0.0000 -11.8848 -3.1719 -9.6344 2.1533 9.1783 26.3548 0.8294 -1.2156 -16.8411 0.0846 -1.8763 -5.1639 0.0000 0.0000 0.0000 23.3919 5.2197 -8.9809 -2.1297 -9.1312 26.2067 -0.5143 -5.5386 -16.7025 -0.0498 -1.4397 3.9596 2.2919 -0.1853 11.2118 4.0643 0.1866 2.4774 2.9233 0.0798 -3.7049 -7.3015 -2.6925 -6.6781 1.2684 -2.9784 6.7274 1.5607 -1.6187 3.5387 0.0000 0.0000 0.0000 -75.6052 -21.9448 34.7616 151.3233 -39.7318 -109.4466 -0.0000 0.0000 -7.3205 38.4331 -16.7499 -12.8815 -7.1250 0.0000 -0.0000 6.8729 9.0842 -5.7442 0.0000 0.0000 0.0000 85.1736 -2.1932 32.4018 -38.2200 46.9792 -17.1263 0.0000 -0.0000 -20.4082 -19.5768 -18.2648 6.3597 7.1250 -0.0000 -0.0000 8.3596 -49.1024 -0.8511
0.00 0.00 0.00 -5.0452 -5.7515 4.4908 0.0000 0.0000 0.0000 -11.3121 -1.5791 -12.4377 2.4479 9.7425 28.1469 0.9466 -1.5777 -17.9239 0.1089 -2.1275 -5.8581 0.0000 0.0000 0.0000 23.4921 6.5614 -10.8742 -2.2945 -9.4544 27.2273 -0.6178 -4.0797 -16.8912 -0.0342 -1.1936 3.2817 2.6441 -0.0316 12.3906 3.9434 0.4567 3.0054 2.5626 0.2070 -3.8058 -6.9458 -2.0880 -6.5362 3.2440 -2.3412 2.6368 2.1753 -1.1608 2.1242 0.0000 0.0000 0.0000 -78.6506 -4.5782 29.3964 136.4803 -50.0223 -98.9018 -0.0000 0.0000 -5.0160 40.3358 -18.5144 -15.0902 -7.1250 0.0000 -0.0000 7.7378 6.4436 -6.8852 0.0000 0.0000 0.0000 83.5958 1.4283 36.4648 -70.8918 58.5744 -43.5310 0.0000 -0.0000 -16.7813 -20.7890 -10.5961 3.9934 7.1250 -0.0000 -0.0000 5.5798 -41.2315 0.5205
0.00 0.00 0.00 -5.3744 -7.0801 4.1436 0.0000 0.0000 0.0000 -10.8414 -0.4528 -12.5277 2.6364 10.0818 29.2421 1.0044 -1.5923 -18.4753 0.1156 -2.1923 -6.0375 0.0000 0.0000 0.0000 24.0394 7.9673 -10.3954 -2.4709 -9.7847 28.2824 -0.6489 -4.0923 -17.2511 -0.0556 -1.5215 4.1849 2.1078 0.7345 13.6677 3.6029 1.4636 2.5503 2.3408 0.7040 -5.0154 -6.7620 -2.6071 -7.0837 4.8546 -3.0833 2.3749 2.6502 -1.4785 2.2196 0.0000 0.0000 0.0000 -79.4315 1.7175 24.4452 128.8682 -53.4419 -92.9193 -0.0000 0.0000 -5.4589 38.0819 -18.1839 -13.7411 -7.1250 0.0000 -0.0000 6.3958 7.4454 -5.5486 0.0000 0.0000 0.0000 81.9482 4.5423 34.2918 -91.4472 59.9921 -61.2533 0.0000 -0.0000 -14.6827 -20.9393 -8.2714 3.1509 7.1250 -0.0000 -0.0000 5.1261 -38.7794 0.7879
0.00 0.00 0.00 -5.3008 -3.3482 4.1031 0.0000 0.0000 0.0000 -10.7166 -1.8709 -13.8209 2.9343 10.5880 30.9026 0.9383 -4.2097 -17.3779 0.0646 -1.6402 -4.5124 0.0000 0.0000 0.0000 23.7465 5.1753 -12.1278 -2.8237 -10.4041 30.2954 -0.6876 -3.9023 -17.5620 -0.1154 -2.1903 6.0318 2.3782 0.7832 14.3593 3.4417 1.5866 2.7281 1.9895 0.7598 -5.1980 -7.2618 -3.7749 -7.0092 6.1271 -4.6018 0.4031 3.1052 -2.2016 1.7136 -0.0000 -0.0000 0.0000 -79.7279 -0.1737 25.1086 125.9487 -54.5043 -90.5579 -0.0000 0.0000 -9.2809 37.2396 -17.8002 -13.0817 -7.1250 0.0000 -0.0000 5.9328 8.1122 -5.0642 -0.0000 -0.0000 0.0000 79.4809 7.3679 26.7664 -108.4808 58.6693 -75.9333 0.0000 -0.0000 -15.1051 -21.4332 -7.6938 3.0085 7.1250 -0.0000 -0.0000 4.6340 -38.1999 0.7779
0.00 0.00 0.00 -6.0008 -3.0827 10.3502 0.0000 0.0000 0.0000 -9.0127 -4.1478 -26.8829 5.0000 13.3838 40.8228 1.4904 -7.0266 -21.8529 0.0929 -1.9653 -5.4097 0.0000 0.0000 0.0000 22.0846 9.4935 -27.1096 -5.8818 -14.3128 44.5053 -1.0270 -1.8619 -19.9006 -0.0053 -0.4695 1.2901 3.0919 0.6513 20.0177 3.5453 1.8110 3.0309 1.6046 0.8239 -7.9363 -7.1589 -3.6673 -6.8544 8.1598 -4.2483 -6.0177 3.8465 -2.0124 -0.3666 0.0000 0.0000 0.0000 -79.1340 -3.8529 26.9343 120.1800 -56.2618 -85.8086 -0.0000 0.0000 -11.2935 39.6544 -19.2534 -15.2866 -7.1250 0.0000 -0.0000 7.1730 5.7386 -6.4719 0.0000 0.0000 0.0000 80.1790 11.4732 25.4790 -119.4648 56.4509 -85.2133 0.0000 -0.0000 -18.0992 -22.6634 -5.2300 2.1798 7.1250 -0.0000 -0.0000 3.3612 -35.6281 0.7751
0.00 0.00 0.00 -5.0220 -2.1917 12.7139 0.0000 0.0000 0.0000 -8.2385 -4.9535 -38.8968 8.9600 16.7819 55.9516 2.2418 -11.9579 -27.0078 0.0430 -1.3380 -3.6794 0.0000 0.0000 0.0000 19.7193 10.1980 -37.3327 -9.4883 -17.1119 57.7641 -2.1699 -0.4956 -28.0706 -0.0167 0.8333 -2.2902 2.0100 0.4926 23.1028 3.4699 1.4461 4.0285 2.2294 0.6703 -8.5043 -7.1619 -3.5759 -7.7843 8.5685 -3.8904 -9.8835 4.0545 -1.8331 -1.4956 0.0000 0.0000 0.0000 -80.5630 -3.0291 27.2228 118.8583 -56.6066 -84.7073 -0.0000 0.0000 -12.5732 40.7952 -20.0443 -16.4783 -7.1250 0.0000 -0.0000 7.7128 4.4477 -7.1579 0.0000 0.0000 0.0000 80.2856 10.4780 24.9359 -118.4295 56.7141 -84.3491 0.0000 -0.0000 -17.1278 -23.4453 -4.3352 1.8776 7.1250 -0.0000 -0.0000 2.6500 -34.6939 0.6711
0.00 0.00 0.00 -4.6054 -1.7642 14.7921 0.0000 0.0000 0.0000 -6.5514 -5.0009 -50.1540 13.9390 19.0954 72.0180 3.2186 -15.1221 -32.6206 0.0664 -1.6625 -4.5739 0.0000 0.0000 0.0000 17.7321 10.7524 -48.0337 -14.4105 -19.2338 73.4542 -3.1656 -1.2439 -34.1646 -0.1313 2.3355 -6.4338 1.6137 0.5995 25.5210 3.5372 1.5319 5.0913 2.5007 0.7130 -8.5919 -6.7754 -3.7390 -9.0556 8.9104 -3.8350 -14.2032 3.8123 -1.8464 -2.4238 -0.0000 0.0000 0.0000 -83.8014 -1.4725 27.4189 108.9652 -58.5964 -76.3469 -0.0000 0.0000 -13.2195 41.2162 -22.8134 -18.7588 -7.1250 0.0000 -0.0000 7.3763 0.9783 -7.3104 -0.0000 0.0000 0.0000 80.7058 5.3561 24.2435 -114.6142 57.5822 -81.1435 0.0000 -0.0000 -16.4513 -23.8633 -4.5347 2.0031 7.1250 -0.0000 -0.0000 2.3163 -34.9289 0.5732
0.00 0.00 0.00 -5.3722 -1.4842 15.5943 0.0000 0.0000 0.0000 -3.6126 -4.8074 -56.6077 18.2835 19.9292 84.9756 4.1898 -17.2263 -37.4336 0.0632 -1.6226 -4.4637 0.0000 0.0000 0.0000 17.7057 11.3332 -54.0105 -18.6151 -19.9540 85.9478 -4.1491 -1.9479 -39.3285 -0.2498 3.2162 -8.8811 2.1781 0.7799 27.9720 3.7787 1.9954 5.8366 2.2856 0.9080 -8.9991 -6.0671 -3.6272 -8.2086 9.2869 -3.4945 -19.1523 3.9491 -1.7923 -4.0784 0.0000 0.0000 0.0000 -87.1482 2.1704 27.9358 92.6484 -59.9735 -62.2934 -0.0000 0.0000 -15.0052 44.0692 -24.9462 -22.2093 -7.1250 0.0000 -0.0000 8.5310 -2.6166 -9.0103 0.0000 0.0000 0.0000 83.5155 -0.3312 22.6225 -98.5130 59.7244 -67.3656 0.0000 -0.0000 -15.2008 -25.2266 -2.1661 1.0202 7.1250 -0.0000 -0.0000 1.0979 -32.3726 0.3395
0.00 0.00 0.00 -5.1748 -1.4470 15.5825 0.0000 0.0000 0.0000 -3.1430 -4.6144 -56.3502 19.2748 19.9874 87.8791 4.4886 -17.2876 -38.7648 0.1462 -2.4641 -6.7900 0.0000 0.0000 0.0000 17.9027 11.9534 -53.2795 -19.3806 -19.9908 88.1886 -4.3560 -4.7639 -41.2899 -0.4196 4.1578 -11.5211 1.6305 0.9382 28.3379 3.8087 2.0585 5.8634 2.6131 0.9500 -9.1739 -6.2589 -3.2634 -8.0636 9.6916 -2.8574 -20.5585 4.1517 -1.4947 -4.5679 -0.0000 -0.0000 0.0000 -88.0514 2.8621 28.1047 71.9277 -58.7292 -44.4157 -0.0000 0.0000 -14.1286 45.8602 -25.2310 -23.7141 -7.1250 0.0000 -0.0000 9.4725 -3.6919 -10.1995 -0.0000 -0.0000 0.0000 84.8429 -3.1630 21.5783 -80.0400 59.6218 -51.3854 0.0000 -0.0000 -16.4462 -26.6381 -1.7269 0.8660 7.1250 -0.0000 -0.0000 -0.0483 -31.9116 -0.0155
0.00 0.00 0.00 -5.7250 -1.0032 15.5850 0.0000 0.0000 0.0000 -3.8961 -4.3038 -46.3834 15.7300 19.5571 77.4262 4.4294 -16.1894 -38.4172 0.1995 -2.8761 -7.9339 0.0000 0.0000 0.0000 21.1662 11.2027 -42.9826 -15.6965 -19.5501 77.3263 -4.4589 -4.6813 -41.7194 -0.2495 3.2143 -8.8760 1.9333 0.7957 25.9799 3.8125 1.9344 4.7260 2.4955 0.8971 -9.2517 -4.9659 -3.1962 -9.5148 10.0228 -2.6176 -22.0047 4.0566 -1.4720 -4.8219 -0.0000 -0.0000 0.0000 -86.7621 5.6901 28.7760 41.5927 -48.9857 -19.6327 -0.0000 0.0000 -10.8941 41.6022 -23.9330 -19.8088 -7.1250 0.0000 -0.0000 7.3515 -0.4881 -7.4755 -0.0000 -0.0000 0.0000 84.9952 -9.4480 21.6772 -51.1817 53.4611 -27.1208 0.0000 -0.0000 -17.5252 -26.2628 -4.5299 2.2317 7.1250 -0.0000 -0.0000 0.3258 -35.0284 0.0798
0.00 0.00 0.00 -6.0107 -2.0858 12.8131 0.0000 0.0000 0.0000 -6.2743 -0.3356 -31.8115 10.5341 17.6994 61.2589 3.3972 -14.8407 -33.4868 0.2405 -3.1559 -8.7131 0.0000 0.0000 0.0000 23.5472 6.1826 -28.9289 -10.4100 -17.6340 60.8501 -3.4115 -2.5675 -35.9228 -0.1543 2.5311 -6.9759 1.7996 1.1555 22.3127 3.9033 2.2688 3.9870 2.5881 1.0756 -8.1824 -4.8163 -3.4093 -9.3634 10.1515 -3.0580 -19.2281 3.9932 -1.6600 -3.9484 -0.0000 0.0000 0.0000 -86.4496 9.3692 30.1036 29.1769 -40.1773 -10.8747 -0.0000 0.0000 -10.6235 35.1843 -19.4140 -13.1887 -7.1250 0.0000 -0.0000 4.3643 6.7102 -3.8359 -0.0000 0.0000 0.0000 84.2210 -14.9443 23.1190 -37.9544 46.8101 -16.9323 0.0000 -0.0000 -14.6884 -24.8921 -9.1648 4.2268 7.1250 -0.0000 -0.0000 1.7951 -40.0585 0.2188
0.00 0.00 0.00 -5.5832 -2.1741 8.3192 0.0000 0.0000 0.0000 -8.0015 2.6448 -15.9692 5.8930 14.3239 44.5508 1.1672 -12.9791 -20.0499 0.6055 -4.9808 -13.8537 0.0000 0.0000 0.0000 23.3925 0.0282 -14.8842 -6.0310 -14.4584 45.1062 -1.3404 -0.1990 -21.9724 -0.3391 3.7421 -10.3523 2.3122 0.7250 18.8278 3.7833 1.7153 2.9727 2.3369 0.8101 -7.3869 -5.1433 -3.4019 -9.0679 9.4631 -3.5583 -11.7359 4.0083 -1.7357 -1.9370 0.0000 -0.0000 0.0000 -87.2631 12.4292 27.0601 19.4137 -29.9295 -5.2357 -0.0000 0.0000 -3.0252 24.9533 -14.3903 -6.5965 -7.1250 0.0000 -0.0000 -1.7223 14.1838 1.2484 0.0000 -0.0000 0.0000 83.8589 -18.3027 22.7613 -25.7971 37.0076 -8.7652 0.0000 -0.0000 -7.0204 -21.9462 -13.0644 5.2043 7.1250 -0.0000 -0.0000 4.9482 -43.9702 0.1261
0.00 0.00 0.00 -5.7804 -3.4386 6.8632 0.0000 0.0000 0.0000 -8.5051 3.0360 -8.5523 3.9302 12.0669 35.9691 0.0193 -8.2676 -6.1764 0.6089 -4.9945 -13.8929 0.0000 0.0000 0.0000 22.9556 1.0511 -8.4892 -4.3076 -12.5589 37.7389 -0.1164 -2.1657 -7.6235 -0.3167 3.6173 -10.0025 2.9998 0.8541 15.1709 3.6787 1.8633 2.1103 1.8286 0.8754 -6.2948 -5.3762 -3.2173 -8.9422 9.2250 -3.5852 -6.9601 3.8766 -1.6783 -0.3762 -0.0000 -0.0000 0.0000 -87.7393 14.3021 22.5206 14.8691 -23.9635 -3.1726 -0.0000 -0.0000 1.7468 19.3158 -15.5300 -5.3612 -7.1250 0.0000 -0.0000 -5.5992 13.6288 4.1424 -0.0000 -0.0000 0.0000 83.8464 -19.6490 21.8835 -19.7182 30.3014 -5.3885 0.0000 -0.0000 -5.1295 -19.8012 -14.1614 5.0340 7.1250 -0.0000 -0.0000 7.1199 -44.8730 0.0224
0.00 0.00 0.00 -5.1111 -4.1243 5.6460 0.0000 0.0000 0.0000 -9.8713 1.3291 -3.4759 2.6143 10.0428 29.1156 0.2862 2.0485 9.6012 0.3720 -3.9176 -10.8449 0.0000 0.0000 0.0000 22.1925 3.7983 -3.9256 -3.2526 -11.0932 32.5948 0.1283 -11.4298 5.9767 -0.0122 -0.7144 1.9634 2.8457 0.8126 12.7154 3.4149 1.6812 1.3010 1.6955 0.7932 -5.7887 -5.8211 -2.9691 -9.2218 8.9034 -3.4350 -3.0205 3.8306 -1.5449 0.9473 0.0000 -0.0000 0.0000 -88.0922 16.9651 16.9155 12.4403 -20.4617 -2.2539 -0.0000 -0.0000 6.5931 18.1433 -17.0845 -5.4988 -7.1250 0.0000 -0.0000 -6.4462 12.1429 4.9784 0.0000 -0.0000 0.0000 84.0060 -20.1008 18.6610 -14.9110 24.0220 -3.1896 0.0000 -0.0000 -0.3464 -17.7177 -15.6914 4.9384 7.1250 -0.0000 -0.0000 9.3996 -46.1949 -0.2796
